Coordinates
version=1
nRows=8
nColumns=33
inDegrees=yes

Units are S.I. units (second, meters, Newtons, ...)
Angles are in degrees.

endheader
time	ground_thorax_rot_x	ground_thorax_rot_y	ground_thorax_rot_z	ground_thorax_tx	ground_thorax_ty	ground_thorax_tz	clav_prot_r	clav_elev_r	scapula_abduction_r	scapula_elevation_r	scapula_upward_rot_r	scapula_winging_r	shoulder_elv_r	plane_of_elev_r	axial_rot_r	elbow_flexion_r	pro_sup_r	wrist_flex_r	wrist_dev_r	clav_prot_l	clav_elev_l	scapula_abduction_l	scapula_elevation_l	scapula_upward_rot_l	scapula_winging_l	shoulder_elv_l	plane_of_elev_l	axial_rot_l	elbow_flexion_l	pro_sup_l	wrist_flex_l	wrist_dev_l
      8.87000000	    -22.61173703	    -36.15670963	     51.25862332	     47.09074232	    808.06282136	    -41.87008179	     27.32500892	    -45.00000000	     40.43634665	    -45.00000000	    -45.00000000	   2419.76768742	   -647.62391129	     20.78624465	   -152.85484107	   1798.59878760	    177.12198242	     13.61411717	     15.05740775	     -0.21264110	     30.85973501	    -29.20550469	    -45.00000000	    -45.00000000	   4402.24732851	  -4243.66798760	     27.84788862	     57.47036795	   1790.06448455	   -313.88269359	     13.12050480	    -14.87288956
      8.88000000	    -21.99109172	    -36.13883901	     52.09449178	     50.70688467	    805.37564532	    -41.63585770	     27.40025936	    -45.00000000	     40.39540143	    -45.00000000	    -45.00000000	   2419.81618534	   -647.81434949	     20.65906031	   -152.42445019	   1798.75143593	    177.75032892	     13.47077600	     14.90150126	     -0.31243347	     30.72699323	    -28.86629575	    -45.00000000	    -45.00000000	   4401.94442275	  -4243.85163191	     27.72675436	     57.00541163	   1790.01039136	   -313.93146782	     13.08015950	    -14.70641592
      8.89000000	    -21.33022148	    -36.10406940	     52.94111771	     54.22920701	    802.67141221	    -41.40614175	     27.45602479	    -45.00000000	     40.40401182	    -45.00000000	    -45.00000000	   2419.85665252	   -647.94991417	     20.48044293	   -151.89295140	   1798.84417630	    178.20146036	     13.33045136	     14.70442829	     -0.43668911	     30.57485690	    -28.54270724	    -45.00000000	    -45.00000000	   4401.57107819	  -4244.02492677	     27.53064426	     56.45726096	   1789.91945324	   -313.98601559	     13.02193992	    -14.50728812
      8.90000000	    -20.73908282	    -36.04546064	     53.68199100	     57.64386174	    799.96971318	    -41.18537421	     27.55782613	    -45.00000000	     40.33127287	    -45.00000000	    -45.00000000	   2419.90913347	   -648.09941274	     20.36567956	   -151.22481236	   1799.06291094	    178.49982026	     13.16185499	     14.51225640	     -0.54781117	     30.48101653	    -28.18783809	    -45.00000000	    -45.00000000	   4401.26043366	  -4244.22372611	     27.40906458	     55.96425325	   1789.89727037	   -314.08132374	     12.94964560	    -14.34231010
      8.91000000	    -20.24780044	    -35.95486284	     54.31107419	     60.94515008	    797.29105560	    -40.97898853	     27.72224947	    -45.00000000	     40.19156773	    -45.00000000	    -45.00000000	   2419.92863084	   -648.28039795	     20.27229610	   -150.57322138	   1799.23858047	    178.63674831	     13.00841882	     14.38684257	     -0.60649412	     30.42328257	    -27.88369305	    -45.00000000	    -45.00000000	   4401.06608223	  -4244.40175835	     27.41023349	     55.59076446	   1789.83520820	   -314.19978656	     12.94620840	    -14.23845932
      8.92000000	    -19.64652194	    -35.88253129	     55.03234565	     64.12742315	    794.65690654	    -40.79344731	     27.77431222	    -45.00000000	     40.17423978	    -45.00000000	    -45.00000000	   2419.93479804	   -648.38735670	     20.08185414	   -149.72213830	   1799.40072813	    178.65554822	     12.81997541	     14.19352193	     -0.73582198	     30.23525007	    -27.51629720	    -45.00000000	    -45.00000000	   4400.70648054	  -4244.56243900	     27.22446303	     55.12136934	   1789.76750574	   -314.31473722	     12.91980273	    -14.10122449
      8.93000000	    -19.05442866	    -35.72936475	     55.76433408	     67.18627174	    792.09256834	    -40.63638659	     27.83578175	    -45.00000000	     40.09107338	    -45.00000000	    -45.00000000	   2419.91457039	   -648.37662283	     19.84308476	   -148.81332564	   1799.49843485	    178.54990084	     12.66544949	     13.86420011	     -0.87497447	     30.06740440	    -27.20962003	    -45.00000000	    -45.00000000	   4400.19755291	  -4244.66939413	     26.98486810	     54.48667563	   1789.64779166	   -314.41478122	     12.80043579	    -13.84932650
      8.94000000	    -18.59591157	    -35.65109889	     56.30997876	     70.11474908	    789.62019473	    -40.51500202	     28.02231185	    -45.00000000	     39.99648296	    -45.00000000	    -45.00000000	   2419.89093219	   -648.52961763	     19.76270822	   -147.72339018	   1799.74920496	    178.30338133	     12.48938129	     13.76766389	     -0.96443427	     30.07547161	    -26.86183739	    -45.00000000	    -45.00000000	   4400.08703531	  -4244.83899787	     27.00519448	     54.23866364	   1789.62654555	   -314.59528265	     12.82269985	    -13.80803770
